<?xml version="1.0" encoding="utf-8"?>
<!-- Generator: Adobe Illustrator 22.1.0, SVG Export Plug-In . SVG Version: 6.00 Build 0)  -->
<svg version="1.1" id="Layer_1" xmlns="http://www.w3.org/2000/svg" xmlns:xlink="http://www.w3.org/1999/xlink" x="0px" y="0px"
	 viewBox="0 0 200 50" style="enable-background:new 0 0 200 50;" xml:space="preserve">
<style type="text/css">
	.st0{fill:#DEDDCE;}
	.st1{fill:#FBFAF8;}
	.st2{fill:#C0BFB3;}
	.st3{fill:#DFE3D6;}
	.st4{fill:#C3C2B5;}
	.st5{fill:#C7C6B9;}
	.st6{fill:#D5D4C6;}
	.st7{fill:#D9D9CB;}
	.st8{fill:#E2E2D3;}
	.st9{fill:#E1E1D2;}
	.st10{fill:#B8B7AB;}
	.st11{fill:#BCBBAF;}
	.st12{fill:#BAB9AD;}
	.st13{fill:#CBCABD;}
	.st14{fill:#BDBCAF;}
	.st15{fill:#D0CFC1;}
	.st16{fill:none;}
	.st17{fill:#1D161E;}
	.st18{font-family:'Montserrat-Regular';}
	.st19{font-size:35px;}
	.st20{letter-spacing:-1;}
	.st21{fill:#483440;}
</style>
<g>
	<path class="st0" d="M17,12.1c0.7-0.7,1.3-1.3,2-2c4.6-0.7,9.2-1.3,13.8,0.2c0,0.3,0,0.5-0.1,0.8c-0.6,5.3,3,6.7,7.1,7.9
		c0.3,0.3,0.6,0.6,0.9,0.9c-1.5,1.7-3.6,1.2-5.4,1.7c-0.5,0.1-0.9,0.1-1.4,0c-1.6-0.3-3.2-0.4-4.7-0.9c-0.4-0.2-0.8-0.4-1.2-0.7
		c-1.3-0.9-2.6-0.9-4.1-0.6c-0.3,0.2-0.6,0.4-0.8,0.7c-0.1,0.3-0.2,0.6-0.3,1c0,0.3,0,0.7-0.1,1c0,0.3,0,0.7,0,1
		c0,0.3,0.1,0.7,0.1,1c0.1,0.3,0.2,0.6,0.4,0.9c0.3,0.3,0.6,0.5,0.9,0.5c3.3,0.3,6.5,0.1,9.8,0.1c0.8-0.1,1.4-0.4,1.7-1.2
		c0.1-0.4,0.3-0.7,0.5-1.1c0.2-0.4,0.5-0.6,0.9-0.8c1.7,0,2.6,1.2,3.6,2.4c0.1,0.3,0.1,0.6,0,0.9c-0.8,4.3-0.6,8.5-0.1,12.8
		c0,0.3,0.1,0.5,0.1,0.8c-1.4,1.5-3.3,1.4-5,1.2c-5.9-0.4-12,1.2-17.8-1c-0.3-0.3-0.5-0.6-0.8-1C15.9,30,16.2,21.1,17,12.1z"/>
	<path class="st1" d="M39.8,19c-8.3,0-9.2-0.9-7.1-7.9C35.3,13.6,38.1,15.8,39.8,19z"/>
	<path class="st2" d="M40.8,25.1c-1.3-0.7-2.6-1.4-3.9-2.1c-0.2,0.3-0.5,0.4-0.9,0.3c-0.3-0.2-0.6-0.5-0.7-0.8
		c-0.3-0.5-0.4-1-0.4-1.6c1.7-1.9,4-0.7,5.9-1.1C40.8,21.6,40.8,23.4,40.8,25.1z"/>
	<path class="st3" d="M40.6,38.9c-1.3-4.3-1.4-8.6,0.1-12.8C40.7,30.3,40.7,34.6,40.6,38.9z"/>
	<path class="st4" d="M22,26c0-0.3,0-0.7,0-1c5-2.2,9.9-2.2,14.9,0c0,0.8-0.2,1.5-1,1.9C31.3,25.6,26.5,27.3,22,26z"/>
	<path class="st5" d="M21.9,31c0-0.3,0-0.7,0-1c4.6-1.3,9.3,0.4,13.9-1c0.8,0.4,1,1.1,1,1.9C31.9,33.2,26.9,33.1,21.9,31z"/>
	<path class="st6" d="M36.9,32c0,0.4,0,0.7-0.1,1.1c-4.9,0.6-9.9,0.7-14.8-0.1c0-0.3,0-0.7,0-1C26.9,31.2,31.9,31.2,36.9,32z"/>
	<path class="st7" d="M35.8,23c0.3,0,0.7,0,1,0.1c0,0.3,0,0.6,0,1c-5,0.8-9.9,0.8-14.9,0c0-0.3,0-0.7,0-1
		C26.6,20.7,31.2,21.1,35.8,23z"/>
	<path class="st8" d="M21.9,24c5,0,9.9,0,14.9,0c0,0.3,0,0.7,0,1c-5,0-9.9,0-14.9,0C21.9,24.7,21.9,24.3,21.9,24z"/>
	<path class="st9" d="M36.9,32c-5,0-9.9,0-14.9,0c0-0.3,0-0.7,0-1c5,0,9.9,0,14.9,0C36.8,31.3,36.8,31.6,36.9,32z"/>
	<path class="st10" d="M22,33c4.9,0,9.9,0,14.8,0.1C31.8,34.5,26.9,34.7,22,33z"/>
	<path class="st11" d="M35.8,29c-4.5,2-9.3,0.5-13.9,1C26.5,27.9,31.2,29.5,35.8,29z"/>
	<path class="st12" d="M35.8,23c-4.6,0-9.3,0-13.9,0c0-0.3,0-0.6,0-1c4.6-2.6,9.3-0.9,13.9,0C35.9,22.3,35.9,22.6,35.8,23z"/>
	<path class="st13" d="M35.8,22c-4.6,0-9.3,0-13.9,0c0-0.3,0-0.7,0-1c4-3,7.9,0.2,11.9,0c0.3,0,0.7,0,1,0
		C35.2,21.3,35.5,21.6,35.8,22z"/>
	<path class="st14" d="M22,26c4.6,0.5,9.4-1.1,13.9,0.9C31.2,26.5,26.5,28.1,22,26z"/>
	<path class="st8" d="M33.8,21c-4,0-7.9,0-11.9,0c0-0.3,0-0.7,0-1c2.3-1.4,4.6-1.4,7,0C30.6,20.2,32.4,19.3,33.8,21z"/>
	<path class="st12" d="M21.9,19c2.3-1.6,4.6-1.6,6.9,0C26.6,19.8,24.3,19.8,21.9,19z"/>
	<path class="st15" d="M21.9,19c2.3,0,4.6,0,6.9,0c0,0.3,0,0.7,0,1c-2.3,0-4.6,0-7,0C21.9,19.7,21.9,19.3,21.9,19z"/>
	<rect x="43" y="10.3" class="st16" width="150" height="29.7"/>
	<text transform="matrix(1 0 0 1 43.0356 36.2207)"><tspan x="0" y="0" class="st17 st18 st19 st20">easy </tspan><tspan x="80.8" y="0" class="st21 st18 st19 st20">FSR</tspan></text>
</g>
</svg>
