<?xml version="1.0" encoding="utf-8"?>
<!-- Generator: Adobe Illustrator 22.1.0, SVG Export Plug-In . SVG Version: 6.00 Build 0)  -->
<svg version="1.1" id="Layer_1" xmlns="http://www.w3.org/2000/svg" xmlns:xlink="http://www.w3.org/1999/xlink" x="0px" y="0px"
	 viewBox="0 0 200 50" style="enable-background:new 0 0 200 50;" xml:space="preserve">
<style type="text/css">
	.st0{fill:#1D161E;stroke:#120D1A;stroke-miterlimit:10;}
	.st1{fill:#FBFAF8;}
	.st2{fill:#C0BFB3;}
	.st3{fill:#DFE3D6;}
	.st4{fill:#DEDDCE;}
	.st5{fill:#C3C2B5;}
	.st6{fill:#C7C6B9;}
	.st7{fill:#D5D4C6;}
	.st8{fill:#D9D9CB;}
	.st9{fill:#E2E2D3;}
	.st10{fill:#E1E1D2;}
	.st11{fill:#B8B7AB;}
	.st12{fill:#BCBBAF;}
	.st13{fill:#BAB9AD;}
	.st14{fill:#CBCABD;}
	.st15{fill:#BDBCAF;}
	.st16{fill:#D0CFC1;}
	.st17{fill:none;}
	.st18{enable-background:new    ;}
	.st19{fill:#FFFFFF;}
	.st20{fill:#483440;}
</style>
<rect x="-0.5" y="-0.5" class="st0" width="201" height="51"/>
<path class="st1" d="M34.8,19c-8.3,0-9.2-0.9-7.1-7.9C30.3,13.6,33.1,15.8,34.8,19z"/>
<path class="st2" d="M35.8,25.1c-1.3-0.7-2.6-1.4-3.9-2.1c-0.2,0.3-0.5,0.4-0.9,0.3c-0.3-0.2-0.6-0.5-0.7-0.8
	c-0.3-0.5-0.4-1-0.4-1.6c1.7-1.9,4-0.7,5.9-1.1C35.8,21.6,35.8,23.4,35.8,25.1z"/>
<path class="st3" d="M35.6,38.9c-1.3-4.3-1.4-8.6,0.1-12.8C35.7,30.3,35.7,34.6,35.6,38.9z"/>
<g>
	<path class="st4" d="M12,12.1c0.7-0.7,1.3-1.3,2-2c4.6-0.7,9.2-1.3,13.8,0.2c0,0.3,0,0.5-0.1,0.8c-0.6,5.3,3,6.7,7.1,7.9
		c0.3,0.3,0.6,0.6,0.9,0.9c-1.5,1.7-3.6,1.2-5.4,1.7c-0.5,0.1-0.9,0.1-1.4,0c-1.6-0.3-3.2-0.4-4.7-0.9c-0.4-0.2-0.8-0.4-1.2-0.7
		c-1.3-0.9-2.6-0.9-4.1-0.6c-0.3,0.2-0.6,0.4-0.8,0.7c-0.1,0.3-0.2,0.6-0.3,1c0,0.3,0,0.7-0.1,1c0,0.3,0,0.7,0,1s0.1,0.7,0.1,1
		c0.1,0.3,0.2,0.6,0.4,0.9c0.3,0.3,0.6,0.5,0.9,0.5c3.3,0.3,6.5,0.1,9.8,0.1c0.8-0.1,1.4-0.4,1.7-1.2c0.1-0.4,0.3-0.7,0.5-1.1
		s0.5-0.6,0.9-0.8c1.7,0,2.6,1.2,3.6,2.4c0.1,0.3,0.1,0.6,0,0.9c-0.8,4.3-0.6,8.5-0.1,12.8c0,0.3,0.1,0.5,0.1,0.8
		c-1.4,1.5-3.3,1.4-5,1.2c-5.9-0.4-12,1.2-17.8-1c-0.3-0.3-0.5-0.6-0.8-1C10.9,30,11.2,21.1,12,12.1z"/>
	<path class="st5" d="M17,26c0-0.3,0-0.7,0-1c5-2.2,9.9-2.2,14.9,0c0,0.8-0.2,1.5-1,1.9C26.3,25.6,21.5,27.3,17,26z"/>
	<path class="st6" d="M16.9,31c0-0.3,0-0.7,0-1c4.6-1.3,9.3,0.4,13.9-1c0.8,0.4,1,1.1,1,1.9C26.9,33.2,21.9,33.1,16.9,31z"/>
	<path class="st7" d="M31.9,32c0,0.4,0,0.7-0.1,1.1c-4.9,0.6-9.9,0.7-14.8-0.1c0-0.3,0-0.7,0-1C21.9,31.2,26.9,31.2,31.9,32z"/>
	<path class="st8" d="M30.8,23c0.3,0,0.7,0,1,0.1c0,0.3,0,0.6,0,1c-5,0.8-9.9,0.8-14.9,0c0-0.3,0-0.7,0-1
		C21.6,20.7,26.2,21.1,30.8,23z"/>
	<path class="st9" d="M16.9,24c5,0,9.9,0,14.9,0c0,0.3,0,0.7,0,1c-5,0-9.9,0-14.9,0C16.9,24.7,16.9,24.3,16.9,24z"/>
	<path class="st10" d="M31.9,32c-5,0-9.9,0-14.9,0c0-0.3,0-0.7,0-1c5,0,9.9,0,14.9,0C31.8,31.3,31.8,31.6,31.9,32z"/>
	<path class="st11" d="M17,33c4.9,0,9.9,0,14.8,0.1C26.8,34.5,21.9,34.7,17,33z"/>
	<path class="st12" d="M30.8,29c-4.5,2-9.3,0.5-13.9,1C21.5,27.9,26.2,29.5,30.8,29z"/>
	<path class="st13" d="M30.8,23c-4.6,0-9.3,0-13.9,0c0-0.3,0-0.6,0-1c4.6-2.6,9.3-0.9,13.9,0C30.9,22.3,30.9,22.6,30.8,23z"/>
	<path class="st14" d="M30.8,22c-4.6,0-9.3,0-13.9,0c0-0.3,0-0.7,0-1c4-3,7.9,0.2,11.9,0c0.3,0,0.7,0,1,0
		C30.2,21.3,30.5,21.6,30.8,22z"/>
	<path class="st15" d="M17,26c4.6,0.5,9.4-1.1,13.9,0.9C26.2,26.5,21.5,28.1,17,26z"/>
	<path class="st9" d="M28.8,21c-4,0-7.9,0-11.9,0c0-0.3,0-0.7,0-1c2.3-1.4,4.6-1.4,7,0C25.6,20.2,27.4,19.3,28.8,21z"/>
	<path class="st13" d="M16.9,19c2.3-1.6,4.6-1.6,6.9,0C21.6,19.8,19.3,19.8,16.9,19z"/>
	<path class="st16" d="M16.9,19c2.3,0,4.6,0,6.9,0c0,0.3,0,0.7,0,1c-2.3,0-4.6,0-7,0C16.9,19.7,16.9,19.3,16.9,19z"/>
</g>
<rect x="40" y="9.3" class="st17" width="150" height="29.7"/>
<g class="st18">
	<path class="st19" d="M60.2,27.6H45.6c0.1,1.4,0.7,2.4,1.9,3.3c1.1,0.8,2.5,1.2,3.9,1.2c2.3,0,4.1-0.7,5.3-2.2l2.2,2.5
		c-2,2.1-4.6,3.1-7.8,3.1c-2.6,0-4.8-0.9-6.7-2.6c-1.8-1.7-2.7-4.1-2.7-7c0-2.9,0.9-5.3,2.8-7s4.1-2.6,6.6-2.6
		c2.5,0,4.7,0.8,6.5,2.3c1.8,1.5,2.7,3.6,2.7,6.3V27.6z M45.6,24.5h10.7c0-1.6-0.5-2.8-1.5-3.6s-2.2-1.3-3.6-1.3s-2.7,0.4-3.9,1.3
		S45.6,23.1,45.6,24.5z"/>
	<path class="st19" d="M78.6,35.2H75v-2.5c-1.5,1.8-3.6,2.8-6.2,2.8c-1.9,0-3.5-0.5-4.8-1.6c-1.3-1.1-1.9-2.6-1.9-4.4
		c0-1.8,0.7-3.2,2-4.1c1.4-0.9,3.2-1.4,5.5-1.4h5.1v-0.7c0-2.5-1.4-3.7-4.1-3.7c-1.7,0-3.5,0.6-5.4,1.9L63.5,19
		c2.3-1.8,4.8-2.7,7.7-2.7c2.2,0,4,0.6,5.4,1.7s2.1,2.9,2.1,5.2V35.2z M74.7,28.3v-1.6h-4.4c-2.8,0-4.2,0.9-4.2,2.7
		c0,0.9,0.4,1.6,1,2.1c0.7,0.5,1.7,0.7,2.9,0.7c1.2,0,2.3-0.3,3.3-1C74.2,30.4,74.7,29.5,74.7,28.3z"/>
	<path class="st19" d="M96.4,29.7c0,1.8-0.6,3.2-1.9,4.3c-1.3,1.1-2.9,1.6-4.9,1.6c-1.4,0-2.8-0.2-4.2-0.7c-1.5-0.5-2.7-1.2-3.9-2.1
		l1.9-3c2.2,1.6,4.3,2.5,6.3,2.5c0.9,0,1.6-0.2,2.1-0.6s0.8-0.9,0.8-1.6c0-0.9-1.2-1.8-3.7-2.5c-0.2-0.1-0.3-0.1-0.4-0.1
		c-3.9-1-5.8-2.8-5.8-5.2c0-1.7,0.7-3.1,2-4.1c1.3-1,3.1-1.6,5.2-1.6c2.1,0,4.2,0.6,6.1,1.9l-1.5,2.9c-1.5-1-3.2-1.5-4.9-1.5
		c-0.9,0-1.7,0.2-2.3,0.5c-0.6,0.3-0.9,0.8-0.9,1.5c0,0.6,0.3,1,0.9,1.3c0.4,0.2,1,0.4,1.8,0.6c0.8,0.2,1.4,0.4,2,0.6
		c0.6,0.2,1.1,0.4,1.7,0.6c0.5,0.2,1.1,0.6,1.8,1C95.7,26.6,96.4,27.9,96.4,29.7z"/>
	<path class="st19" d="M102.2,42.6c-1.7,0-3.2-0.6-4.6-1.9l1.8-3.2c0.8,0.8,1.7,1.2,2.5,1.2s1.6-0.3,2.1-0.9
		c0.5-0.6,0.8-1.3,0.8-2.1c0-0.3-2.5-6.7-7.5-19.1h4.2l5.6,13.7l5.6-13.7h4.2l-9,22.1c-0.5,1.2-1.3,2.2-2.3,2.9
		S103.4,42.6,102.2,42.6z"/>
</g>
<g class="st18">
	<path class="st20" d="M128.4,14.6v6.7h10.9v3.8h-10.9v10.1h-4.1V10.8h16.3l0,3.8H128.4z"/>
	<path class="st20" d="M151.8,14c-1.2,0-2.2,0.2-3,0.7c-0.8,0.5-1.2,1.2-1.2,2.2c0,1,0.4,1.8,1.2,2.3c0.8,0.5,2.4,1.1,4.9,1.7
		c2.5,0.6,4.4,1.5,5.7,2.6c1.3,1.1,1.9,2.7,1.9,4.8c0,2.1-0.8,3.9-2.4,5.2c-1.6,1.3-3.7,2-6.3,2c-3.8,0-7.2-1.3-10.2-4l2.6-3.1
		c2.5,2.1,5,3.2,7.7,3.2c1.3,0,2.4-0.3,3.2-0.9c0.8-0.6,1.2-1.3,1.2-2.3c0-0.9-0.4-1.7-1.1-2.2c-0.7-0.5-2-1-3.8-1.4
		c-1.8-0.4-3.2-0.8-4.1-1.2c-0.9-0.4-1.8-0.8-2.5-1.4c-1.4-1.1-2.2-2.8-2.2-5c0-2.3,0.8-4,2.5-5.2c1.6-1.2,3.7-1.8,6.1-1.8
		c1.6,0,3.1,0.3,4.7,0.8c1.5,0.5,2.9,1.2,4,2.2l-2.2,3.1c-0.7-0.7-1.7-1.2-2.9-1.6C154.2,14.2,153,14,151.8,14z"/>
	<path class="st20" d="M185,18.7c0,4-1.8,6.6-5.3,7.6l6.4,8.9h-5.2L175,27h-5.4v8.2h-4.1V10.8h9.1c3.7,0,6.4,0.6,8,1.9
		C184.2,13.9,185,15.9,185,18.7z M179.5,22.2c0.8-0.7,1.3-1.9,1.3-3.5c0-1.6-0.4-2.7-1.3-3.3c-0.9-0.6-2.4-0.9-4.6-0.9h-5.2v8.8h5.1
		C177.1,23.3,178.7,22.9,179.5,22.2z"/>
</g>
</svg>
