<?xml version="1.0" encoding="utf-8"?>
<!-- Generator: Adobe Illustrator 22.1.0, SVG Export Plug-In . SVG Version: 6.00 Build 0)  -->
<svg version="1.1" id="Layer_1" xmlns="http://www.w3.org/2000/svg" xmlns:xlink="http://www.w3.org/1999/xlink" x="0px" y="0px"
	 viewBox="0 0 200 50" style="enable-background:new 0 0 200 50;" xml:space="preserve">
<style type="text/css">
	.st0{fill:#1D161E;stroke:#120D1A;stroke-miterlimit:10;}
	.st1{fill:#FBFAF8;}
	.st2{fill:#C0BFB3;}
	.st3{fill:#DFE3D6;}
	.st4{fill:#DEDDCE;}
	.st5{fill:#C3C2B5;}
	.st6{fill:#C7C6B9;}
	.st7{fill:#D5D4C6;}
	.st8{fill:#D9D9CB;}
	.st9{fill:#E2E2D3;}
	.st10{fill:#E1E1D2;}
	.st11{fill:#B8B7AB;}
	.st12{fill:#BCBBAF;}
	.st13{fill:#BAB9AD;}
	.st14{fill:#CBCABD;}
	.st15{fill:#BDBCAF;}
	.st16{fill:#D0CFC1;}
	.st17{fill:none;}
	.st18{fill:#FFFFFF;}
	.st19{font-family:'Montserrat-Regular';}
	.st20{font-size:35px;}
	.st21{letter-spacing:-1;}
	.st22{fill:#1D161E;}
	.st23{fill:#483440;}
</style>
<rect x="-0.5" y="-0.5" class="st0" width="201" height="51"/>
<g>
	<path class="st1" d="M34.8,19c-8.3,0-9.2-0.9-7.1-7.9C30.3,13.6,33.1,15.8,34.8,19z"/>
	<path class="st2" d="M35.8,25.1c-1.3-0.7-2.6-1.4-3.9-2.1c-0.2,0.3-0.5,0.4-0.9,0.3c-0.3-0.2-0.6-0.5-0.7-0.8
		c-0.3-0.5-0.4-1-0.4-1.6c1.7-1.9,4-0.7,5.9-1.1C35.8,21.6,35.8,23.4,35.8,25.1z"/>
	<path class="st3" d="M35.6,38.9c-1.3-4.3-1.4-8.6,0.1-12.8C35.7,30.3,35.7,34.6,35.6,38.9z"/>
	<g>
		<path class="st4" d="M12,12.1c0.7-0.7,1.3-1.3,2-2c4.6-0.7,9.2-1.3,13.8,0.2c0,0.3,0,0.5-0.1,0.8c-0.6,5.3,3,6.7,7.1,7.9
			c0.3,0.3,0.6,0.6,0.9,0.9c-1.5,1.7-3.6,1.2-5.4,1.7c-0.5,0.1-0.9,0.1-1.4,0c-1.6-0.3-3.2-0.4-4.7-0.9c-0.4-0.2-0.8-0.4-1.2-0.7
			c-1.3-0.9-2.6-0.9-4.1-0.6c-0.3,0.2-0.6,0.4-0.8,0.7c-0.1,0.3-0.2,0.6-0.3,1c0,0.3,0,0.7-0.1,1c0,0.3,0,0.7,0,1
			c0,0.3,0.1,0.7,0.1,1c0.1,0.3,0.2,0.6,0.4,0.9c0.3,0.3,0.6,0.5,0.9,0.5c3.3,0.3,6.5,0.1,9.8,0.1c0.8-0.1,1.4-0.4,1.7-1.2
			c0.1-0.4,0.3-0.7,0.5-1.1c0.2-0.4,0.5-0.6,0.9-0.8c1.7,0,2.6,1.2,3.6,2.4c0.1,0.3,0.1,0.6,0,0.9c-0.8,4.3-0.6,8.5-0.1,12.8
			c0,0.3,0.1,0.5,0.1,0.8c-1.4,1.5-3.3,1.4-5,1.2c-5.9-0.4-12,1.2-17.8-1c-0.3-0.3-0.5-0.6-0.8-1C10.9,30,11.2,21.1,12,12.1z"/>
		<path class="st5" d="M17,26c0-0.3,0-0.7,0-1c5-2.2,9.9-2.2,14.9,0c0,0.8-0.2,1.5-1,1.9C26.3,25.6,21.5,27.3,17,26z"/>
		<path class="st6" d="M16.9,31c0-0.3,0-0.7,0-1c4.6-1.3,9.3,0.4,13.9-1c0.8,0.4,1,1.1,1,1.9C26.9,33.2,21.9,33.1,16.9,31z"/>
		<path class="st7" d="M31.9,32c0,0.4,0,0.7-0.1,1.1c-4.9,0.6-9.9,0.7-14.8-0.1c0-0.3,0-0.7,0-1C21.9,31.2,26.9,31.2,31.9,32z"/>
		<path class="st8" d="M30.8,23c0.3,0,0.7,0,1,0.1c0,0.3,0,0.6,0,1c-5,0.8-9.9,0.8-14.9,0c0-0.3,0-0.7,0-1
			C21.6,20.7,26.2,21.1,30.8,23z"/>
		<path class="st9" d="M16.9,24c5,0,9.9,0,14.9,0c0,0.3,0,0.7,0,1c-5,0-9.9,0-14.9,0C16.9,24.7,16.9,24.3,16.9,24z"/>
		<path class="st10" d="M31.9,32c-5,0-9.9,0-14.9,0c0-0.3,0-0.7,0-1c5,0,9.9,0,14.9,0C31.8,31.3,31.8,31.6,31.9,32z"/>
		<path class="st11" d="M17,33c4.9,0,9.9,0,14.8,0.1C26.8,34.5,21.9,34.7,17,33z"/>
		<path class="st12" d="M30.8,29c-4.5,2-9.3,0.5-13.9,1C21.5,27.9,26.2,29.5,30.8,29z"/>
		<path class="st13" d="M30.8,23c-4.6,0-9.3,0-13.9,0c0-0.3,0-0.6,0-1c4.6-2.6,9.3-0.9,13.9,0C30.9,22.3,30.9,22.6,30.8,23z"/>
		<path class="st14" d="M30.8,22c-4.6,0-9.3,0-13.9,0c0-0.3,0-0.7,0-1c4-3,7.9,0.2,11.9,0c0.3,0,0.7,0,1,0
			C30.2,21.3,30.5,21.6,30.8,22z"/>
		<path class="st15" d="M17,26c4.6,0.5,9.4-1.1,13.9,0.9C26.2,26.5,21.5,28.1,17,26z"/>
		<path class="st9" d="M28.8,21c-4,0-7.9,0-11.9,0c0-0.3,0-0.7,0-1c2.3-1.4,4.6-1.4,7,0C25.6,20.2,27.4,19.3,28.8,21z"/>
		<path class="st13" d="M16.9,19c2.3-1.6,4.6-1.6,6.9,0C21.6,19.8,19.3,19.8,16.9,19z"/>
		<path class="st16" d="M16.9,19c2.3,0,4.6,0,6.9,0c0,0.3,0,0.7,0,1c-2.3,0-4.6,0-7,0C16.9,19.7,16.9,19.3,16.9,19z"/>
	</g>
	<rect x="40" y="9.3" class="st17" width="150" height="29.7"/>
	<text transform="matrix(1 0 0 1 40.0356 35.2207)"><tspan x="0" y="0" class="st18 st19 st20 st21">easy</tspan><tspan x="73" y="0" class="st22 st19 st20 st21"> </tspan><tspan x="80.8" y="0" class="st23 st19 st20 st21">FSR</tspan></text>
</g>
</svg>
